<svg xmlns="http://www.w3.org/2000/svg" viewBox="0 0 512 512" style="height: 512px; width: 512px;"><defs><filter id="shadow-1" height="300%" width="300%" x="-100%" y="-100%"><feFlood flood-color="rgba(58, 63, 94, 1)" result="flood"></feFlood><feComposite in="flood" in2="SourceGraphic" operator="out" result="composite"></feComposite><feGaussianBlur in="composite" stdDeviation="15" result="blur"></feGaussianBlur><feOffset dx="0" dy="0" result="offset"></feOffset><feComposite in2="SourceGraphic" in="offset" operator="atop"></feComposite></filter></defs><rect fill="#1b1f21" fill-opacity="1" height="512" width="512" rx="32" ry="32"></rect><g class="" transform="translate(0,0)" style=""><path d="M176 80L39.36 247h77.74L176 144l32 48v-48l-32-64zm160 0l-32 64v48l32-48 58.9 103h77.7L336 80zM25 265v174h194.2l36.8-55.2 36.8 55.2H487V265H25zm23 23h176v64l-32 64H48V288zm240 0h176v128H320l-32-64v-64z" fill="#e64539" fill-opacity="1" filter="url(#shadow-1)"></path></g></svg>