<svg xmlns="http://www.w3.org/2000/svg" viewBox="0 0 512 512" style="height: 512px; width: 512px;"><defs><filter id="shadow-1" height="300%" width="300%" x="-100%" y="-100%"><feFlood flood-color="rgba(58, 63, 94, 1)" result="flood"></feFlood><feComposite in="flood" in2="SourceGraphic" operator="out" result="composite"></feComposite><feGaussianBlur in="composite" stdDeviation="15" result="blur"></feGaussianBlur><feOffset dx="0" dy="0" result="offset"></feOffset><feComposite in2="SourceGraphic" in="offset" operator="atop"></feComposite></filter></defs><rect fill="#1b1f21" fill-opacity="1" height="512" width="512" rx="32" ry="32"></rect><g class="" transform="translate(0,0)" style=""><path d="M145.75 19.78L107.906 116l43.03 31.938 48.814-96.97-54-31.187zm77.094 26.907L152.47 186.5l86.468 49.938 88.53-129.344-104.624-60.406zm112.187 82.376L262.376 235.28c17.46 28.874 29.09 63.707 35.375 103.126 56.317-31.27 107.836-85.753 135.28-152.75l-98-56.594zm114.345 66.03c-30.433 72.7-86.892 130.64-148.938 163.063 2.02 18.153 3.012 37.162 3 56.906 71.107-23.5 159.603-92.374 187.907-195.75l-41.97-24.218zm-289.094 17.5c-39.7 79.313-78.154 159.572-137.905 237.157v44.78H66.72c41.425-87.972 93.64-170.09 145.53-251.936l-51.97-30z" fill="#e64539" fill-opacity="1" filter="url(#shadow-1)"></path></g></svg>