<svg xmlns="http://www.w3.org/2000/svg" viewBox="0 0 512 512" style="height: 512px; width: 512px;"><defs><filter id="shadow-1" height="300%" width="300%" x="-100%" y="-100%"><feFlood flood-color="rgba(58, 63, 94, 1)" result="flood"></feFlood><feComposite in="flood" in2="SourceGraphic" operator="out" result="composite"></feComposite><feGaussianBlur in="composite" stdDeviation="15" result="blur"></feGaussianBlur><feOffset dx="0" dy="0" result="offset"></feOffset><feComposite in2="SourceGraphic" in="offset" operator="atop"></feComposite></filter></defs><rect fill="#1b1f21" fill-opacity="1" height="512" width="512" rx="32" ry="32"></rect><g class="" transform="translate(0,0)" style=""><path d="M29.65 117.89v276.22h124.62V117.89H29.65zm90.55 253.16a11 11 0 1 1 11-11 11 11 0 0 1-11 11zm18-189.16H45.56v-16h92.63v16zm0-32H45.56v-16h92.63v16zm153 188.51h73.1v39.71h41.74v16H249.48v-16h41.74V338.4zm-118-220.51V322.4h309.15V117.89H173.19zM466.35 306.4H189.19V133.89h277.16V306.4z" fill="#e64539" fill-opacity="1" filter="url(#shadow-1)"></path></g></svg>