<svg xmlns="http://www.w3.org/2000/svg" viewBox="0 0 512 512" style="height: 512px; width: 512px;"><defs><filter id="shadow-1" height="300%" width="300%" x="-100%" y="-100%"><feFlood flood-color="rgba(58, 63, 94, 1)" result="flood"></feFlood><feComposite in="flood" in2="SourceGraphic" operator="out" result="composite"></feComposite><feGaussianBlur in="composite" stdDeviation="15" result="blur"></feGaussianBlur><feOffset dx="0" dy="0" result="offset"></feOffset><feComposite in2="SourceGraphic" in="offset" operator="atop"></feComposite></filter></defs><rect fill="#1b1f21" fill-opacity="1" height="512" width="512" rx="32" ry="32"></rect><g class="" transform="translate(0,0)" style=""><path d="M160 32c-16 0-32 16-32 32v384c0 16 16 32 32 32h192c16 0 32-16 32-32V64c0-16-16-32-32-32H160zm21.68 23h96v18h-96V55zM304 55h32v18h-32V55zM154 96h204v320H154V96zm70 342h63.984c16 0 16 16 16 16v6H208v-6s0-16 16-16z" fill="#e64539" fill-opacity="1" filter="url(#shadow-1)"></path></g></svg>