<svg xmlns="http://www.w3.org/2000/svg" viewBox="0 0 512 512" style="height: 512px; width: 512px;"><defs><filter id="shadow-1" height="300%" width="300%" x="-100%" y="-100%"><feFlood flood-color="rgba(58, 63, 94, 1)" result="flood"></feFlood><feComposite in="flood" in2="SourceGraphic" operator="out" result="composite"></feComposite><feGaussianBlur in="composite" stdDeviation="15" result="blur"></feGaussianBlur><feOffset dx="0" dy="0" result="offset"></feOffset><feComposite in2="SourceGraphic" in="offset" operator="atop"></feComposite></filter></defs><rect fill="#1b1f21" fill-opacity="1" height="512" width="512" rx="32" ry="32"></rect><g class="" transform="translate(0,0)" style=""><path d="M468.53 236.03H486v39.94h-17.47v-39.94zm-34.426 51.634h17.47v-63.328h-17.47v63.328zm-33.848 32.756h17.47V191.58h-17.47v128.84zm-32.177 25.276h17.47V167.483h-17.47v178.17zm-34.448-43.521h17.47v-92.35h-17.47v92.35zm-34.994 69.879h17.47v-236.06h-17.525v236.06zM264.2 405.9h17.47V106.1H264.2V405.9zm-33.848-46.284h17.47V152.383h-17.47v207.234zm-35.016-58.85h17.47v-87.35h-17.47v87.35zm-33.847-20.823h17.47V231.98h-17.47v48.042zm-33.848 25.66h17.47v-99.24h-17.47v99.272zm-33.302 48.04h17.47V152.678H94.34v201zm-33.847-30.702h17.47V187.333h-17.47v135.642zM26 287.664h17.47v-63.328H26v63.328z" fill="#e64539" fill-opacity="1" filter="url(#shadow-1)"></path></g></svg>