<svg xmlns="http://www.w3.org/2000/svg" viewBox="0 0 512 512" style="height: 512px; width: 512px;"><defs><filter id="shadow-1" height="300%" width="300%" x="-100%" y="-100%"><feFlood flood-color="rgba(58, 63, 94, 1)" result="flood"></feFlood><feComposite in="flood" in2="SourceGraphic" operator="out" result="composite"></feComposite><feGaussianBlur in="composite" stdDeviation="15" result="blur"></feGaussianBlur><feOffset dx="0" dy="0" result="offset"></feOffset><feComposite in2="SourceGraphic" in="offset" operator="atop"></feComposite></filter></defs><rect fill="#1b1f21" fill-opacity="1" height="512" width="512" rx="32" ry="32"></rect><g class="" transform="translate(0,0)" style=""><path d="M489.824 354.324c-5.91-6.65-41.57-41.8-44.52-69.228-3.385-31.43-7.713-98.336-26.74-123.443-24.465-32.287-51.253-57.334-165.762-57.334-81.727 0-123.298 16.922-150.714 53.815-16.464 22.194-30.22 79.418-33.266 113.01-4.618 50.058-50.407 39.275-49.416 53.78.98 14.313 67.185 17.94 156.878 18.266 59.46.218 104.2 60.26 135.93 63.173 94.698 8.75 198.848-28.057 177.61-52.04zM272.24 230.964a16.246 16.246 0 1 1 16.245-16.245 16.246 16.246 0 0 1-16.234 16.245z" fill="#e64539" fill-opacity="1" filter="url(#shadow-1)"></path></g></svg>