<svg xmlns="http://www.w3.org/2000/svg" viewBox="0 0 512 512" style="height: 512px; width: 512px;"><defs><filter id="shadow-1" height="300%" width="300%" x="-100%" y="-100%"><feFlood flood-color="rgba(58, 63, 94, 1)" result="flood"></feFlood><feComposite in="flood" in2="SourceGraphic" operator="out" result="composite"></feComposite><feGaussianBlur in="composite" stdDeviation="15" result="blur"></feGaussianBlur><feOffset dx="0" dy="0" result="offset"></feOffset><feComposite in2="SourceGraphic" in="offset" operator="atop"></feComposite></filter></defs><rect fill="#1b1f21" fill-opacity="1" height="512" width="512" rx="32" ry="32"></rect><g class="" transform="translate(0,0)" style=""><path d="M41 27.7v46h430v-46zm32 64v112.5l62 20.7V91.7zm80 0v139.2l79.3 26.4c-10.4 7.5-17.3 19.7-17.3 33.4 0 21 16.1 38.5 36.5 40.7l-22.3 43.7-58.2 9.3 41.6 41.7-9.1 58.2 52.5-26.7 52.5 26.7-9.1-58.2 41.6-41.7-58.2-9.3-22.3-43.7c20.4-2.2 36.5-19.7 36.5-40.7 0-13.7-6.9-25.9-17.3-33.4l79.3-26.4V91.7h-94v159c-2.9-.6-5.9-1-9-1-3.1 0-6.1.4-9 1v-159zm224 0v133.2l62-20.7V91.7zm-121 176c12.8 0 23 10.2 23 23s-10.2 23-23 23-23-10.2-23-23 10.2-23 23-23z" fill="#e64539" fill-opacity="1" filter="url(#shadow-1)"></path></g></svg>